<?xml version="1.0" encoding="utf-8"?>
<!-- Generator: Adobe Illustrator 23.0.6, SVG Export Plug-In . SVG Version: 6.00 Build 0)  -->
<svg version="1.1" xmlns="http://www.w3.org/2000/svg" xmlns:xlink="http://www.w3.org/1999/xlink" x="0px" y="0px"
	 viewBox="0 0 1024 1024" style="enable-background:new 0 0 1024 1024;" xml:space="preserve">
<style type="text/css">
	.st0{display:none;}
	.st1{display:inline;stroke:#000000;stroke-miterlimit:10;}
	.st2{fill:#FFFFFF;stroke:#FFFFFF;stroke-width:32;stroke-linecap:round;stroke-linejoin:round;stroke-miterlimit:10;}
	.st3{fill:none;stroke:#FFFFFF;stroke-width:22;stroke-linecap:round;stroke-linejoin:round;stroke-miterlimit:10;}
	.st4{fill:#FFFFFF;stroke:#FFFFFF;stroke-miterlimit:10;}
</style>
<g id="Layer_3" class="st0">
	<rect x="-44.4" y="-83.13" class="st1" width="1102.49" height="1144.03"/>
</g>
<g id="Layer_1">
	<path class="st2" d="M682.79,355.39"/>
	<path class="st2" d="M341.21,355.39"/>
	<path class="st2" d="M683.11,421.69"/>
	<path class="st2" d="M341.54,421.69"/>
	<path class="st3" d="M705.42,287.61c-53.4,91.4-96.89,51.49-162.59,10.75c-62.08-38.5-98.59,30.04-116.3,104.43
		c-17.8,74.77-134.71,10.66-103.25-115.19"/>
	<path class="st4" d="M742.79,161.53H281.86c-41.39,0-75.06,33.67-75.06,75.06v452.03l56-45.62V236.59
		c0-10.51,8.55-19.06,19.06-19.06h460.93c10.51,0,19.06,8.55,19.06,19.06v550.82c0,10.51-8.55,19.06-19.06,19.06H281.86
		c-10.51,0-19.06-8.55-19.06-19.06v-34.42l-55.24,45.01c5.16,36.39,36.51,64.48,74.3,64.48h460.93c41.39,0,75.06-33.67,75.06-75.06
		V236.59C817.85,195.2,784.18,161.53,742.79,161.53z"/>
	<path class="st3" d="M512.32,503.67c142.06,79.18,25.76-98.5,148-97.31"/>
</g>
<g id="Layer_2">
	<g>
		<path class="st4" d="M80.24,883.98c-0.34,0-0.68-0.02-1.02-0.05c-2.64-0.27-5.06-1.58-6.74-3.63l-26.7-32.77
			c-3.49-4.28-2.85-10.58,1.12-13.81l374.06-304.75c1.61-1.31,3.46-2.29,5.45-2.88c3.56-1.05,2.57-0.71,2.57-0.71s0,0,8.35-1.68
			l52.99-10.49c2.46-0.49,4.4,2.09,3.25,4.32l-23.27,45.1c-3.41,7.52-3.46,9.27-7.74,12.76L86.56,881.74
			C84.77,883.2,82.53,883.98,80.24,883.98z M68.88,844.2l12.17,14.94c0.35,0.43,0.98,0.49,1.41,0.14l358.19-291.82
			c0.86-0.7,0.98-1.96,0.29-2.81l-11.54-14.16c-0.7-0.86-1.96-0.98-2.81-0.29L69.16,841.39C68.31,842.08,68.18,843.34,68.88,844.2z"
			/>
	</g>
	<path class="st4" d="M394.32,555.71l-26.66,22.63c-1.64,1.39-4.1,1.19-5.49-0.45l-0.34-0.4c-1.39-1.64-1.19-4.1,0.45-5.49
		l26.66-22.63c1.64-1.39,4.1-1.19,5.49,0.45l0.34,0.4C396.16,551.86,395.96,554.32,394.32,555.71z"/>
	<path class="st4" d="M355.03,587.75l-26.66,22.63c-1.64,1.39-4.1,1.19-5.49-0.45l-0.34-0.4c-1.39-1.64-1.19-4.1,0.45-5.49
		l26.66-22.63c1.64-1.39,4.1-1.19,5.49,0.45l0.34,0.4C356.86,583.91,356.66,586.36,355.03,587.75z"/>
	<path class="st4" d="M58.39,839.06l25.04,31.15c1.35,1.68,1.08,4.13-0.6,5.47l-18.36,14.76c-1.68,1.35-4.13,1.08-5.47-0.6
		L33.96,858.7c-1.35-1.68-1.08-4.13,0.6-5.47l18.36-14.76C54.59,837.12,57.04,837.39,58.39,839.06z"/>
</g>
</svg>
